<svg xmlns="http://www.w3.org/2000/svg" xmlns:xlink="http://www.w3.org/1999/xlink" width="500" zoomAndPan="magnify" viewBox="0 0 375 374.999991" height="500" preserveAspectRatio="xMidYMid meet" version="1.0"><defs><clipPath id="f6754dded5"><path d="M 56 58 L 317 58 L 317 317.859375 L 56 317.859375 Z M 56 58 " clip-rule="nonzero"/></clipPath></defs><path fill="#ea9c4e" d="M 167.859375 110.132812 C 166.417969 86.746094 149.242188 77.601562 144.394531 75.484375 C 140.417969 83.9375 140.5 95.679688 140.667969 99.464844 C 145.546875 100.191406 150.28125 101.453125 154.871094 103.253906 C 159.460938 105.054688 163.789062 107.347656 167.859375 110.132812 Z M 167.859375 110.132812 " fill-opacity="1" fill-rule="nonzero"/><path fill="#ffa9af" d="M 102.277344 102.828125 C 102.105469 99.851562 100.898438 91.636719 93.144531 84.042969 C 90.117188 87.636719 87.550781 91.53125 85.441406 95.730469 C 83.332031 99.925781 81.738281 104.3125 80.660156 108.882812 C 80.496094 110.792969 80.441406 112.707031 80.496094 114.621094 C 84.398438 111.3125 92.503906 105.285156 102.277344 102.828125 Z M 102.277344 102.828125 " fill-opacity="1" fill-rule="nonzero"/><path fill="#a7a9ac" d="M 214.71875 106.242188 C 219.722656 103.796875 224.929688 101.902344 230.335938 100.558594 C 256.710938 94.066406 280.941406 102.488281 297.347656 123.679688 C 292.21875 114.945312 285.941406 107.203125 279.265625 103.410156 C 268.839844 97.492188 256.511719 96.238281 244.570312 95.027344 L 242.167969 94.785156 C 229.972656 93.519531 212.4375 88.242188 203.144531 77.519531 C 201.773438 75.925781 200.5625 74.210938 199.390625 72.546875 C 197.695312 70.128906 196.089844 67.84375 194.042969 65.96875 C 190.933594 63.128906 185.8125 61.375 182.425781 63.730469 C 180.25 65.238281 179.085938 68.3125 179.453125 71.554688 C 179.828125 74.878906 181.578125 77.929688 183.222656 80.464844 C 189.417969 90.03125 198.648438 98.003906 210.691406 104.292969 C 211.351562 104.632812 211.832031 104.898438 212.226562 105.113281 C 213.015625 105.578125 213.847656 105.953125 214.71875 106.242188 Z M 214.71875 106.242188 " fill-opacity="1" fill-rule="nonzero"/><path fill="#ea9c4e" d="M 167.542969 259.847656 C 163.910156 258.195312 160.570312 256.078125 157.527344 253.5 C 154.480469 250.921875 151.847656 247.976562 149.621094 244.667969 C 135.898438 224.667969 140.34375 207.410156 146.492188 196.457031 C 150.59375 189.316406 155.871094 183.191406 162.332031 178.078125 C 161.574219 174.746094 161.242188 171.367188 161.332031 167.949219 C 161.421875 164.53125 161.933594 161.175781 162.863281 157.882812 C 162.972656 157.511719 163.191406 157.214844 163.515625 157 C 163.839844 156.785156 164.195312 156.703125 164.582031 156.746094 C 165.175781 156.820312 175.335938 158.203125 183.589844 168.875 C 186.097656 162.953125 187.414062 156.78125 187.535156 150.351562 C 187.597656 146.332031 187.09375 142.386719 186.019531 138.511719 C 185.601562 138.144531 185.421875 137.679688 185.488281 137.125 C 185.488281 137.046875 185.519531 136.972656 185.53125 136.890625 C 182.527344 127.671875 176.128906 119.65625 166.382812 112.976562 C 147.699219 100.121094 127.894531 100.75 114.578125 103.515625 L 113.992188 103.515625 C 113.925781 103.503906 113.863281 103.488281 113.800781 103.46875 L 113.695312 103.4375 L 113.511719 103.355469 C 113.480469 103.339844 113.453125 103.324219 113.421875 103.300781 C 113.367188 103.273438 113.316406 103.234375 113.269531 103.191406 C 113.238281 103.171875 113.207031 103.148438 113.179688 103.121094 C 113.128906 103.078125 113.09375 103.03125 113.050781 102.988281 C 113.019531 102.957031 112.996094 102.925781 112.972656 102.886719 C 112.9375 102.84375 112.90625 102.796875 112.878906 102.746094 C 112.851562 102.703125 112.828125 102.664062 112.8125 102.617188 C 112.785156 102.566406 112.765625 102.515625 112.753906 102.464844 C 112.738281 102.425781 112.722656 102.390625 112.710938 102.351562 C 112.65625 102.148438 107.539062 83.007812 93.402344 73.929688 C 90.488281 78.542969 87.992188 83.371094 85.921875 88.421875 C 87.675781 85.640625 89.679688 83.050781 91.929688 80.652344 C 92.074219 80.507812 92.242188 80.394531 92.429688 80.3125 C 92.617188 80.230469 92.8125 80.1875 93.015625 80.183594 C 93.222656 80.175781 93.417969 80.207031 93.609375 80.277344 C 93.804688 80.347656 93.976562 80.453125 94.128906 80.585938 C 106.15625 91.371094 105.523438 103.667969 105.492188 104.183594 C 105.46875 104.539062 105.34375 104.851562 105.109375 105.125 C 104.878906 105.394531 104.585938 105.566406 104.238281 105.640625 C 91.023438 108.484375 80.378906 119.023438 80.273438 119.128906 C 80.257812 119.144531 80.242188 119.15625 80.226562 119.167969 C 80.210938 119.183594 80.199219 119.199219 80.183594 119.214844 C 66.539062 130.796875 58.605469 150.527344 60.414062 168.316406 C 61.632812 180.296875 67.242188 189.613281 76.210938 194.539062 C 85.988281 199.90625 94.710938 201.773438 102.117188 201.773438 C 118.792969 201.773438 128.746094 192.300781 128.890625 192.164062 C 129.042969 192.03125 129.214844 191.929688 129.40625 191.863281 C 129.597656 191.796875 129.796875 191.765625 130 191.773438 C 130.203125 191.78125 130.398438 191.828125 130.585938 191.910156 C 130.769531 191.992188 130.933594 192.105469 131.078125 192.25 C 131.21875 192.398438 131.328125 192.5625 131.40625 192.75 C 131.488281 192.9375 131.527344 193.132812 131.53125 193.335938 C 131.535156 193.539062 131.5 193.738281 131.429688 193.925781 C 131.359375 194.117188 131.253906 194.289062 131.117188 194.4375 C 130.957031 194.585938 120.078125 204.945312 102.050781 204.945312 C 94.1875 204.945312 84.964844 202.972656 74.675781 197.324219 C 70.136719 194.828125 66.4375 191.425781 63.574219 187.109375 C 64.210938 195.191406 66.714844 211.558594 76.40625 230.238281 C 77.84375 233 79.476562 235.886719 81.324219 238.859375 C 84.515625 241.269531 119.984375 267.105469 167.542969 259.847656 Z M 167.542969 259.847656 " fill-opacity="1" fill-rule="nonzero"/><path fill="#a7a9ac" d="M 309.101562 152.238281 C 306.175781 143.605469 302.046875 135.585938 296.71875 128.1875 C 275.378906 98.03125 246.445312 99.863281 231.09375 103.648438 C 225.753906 104.976562 220.613281 106.855469 215.671875 109.28125 C 215.578125 109.34375 215.480469 109.394531 215.375 109.429688 C 201.289062 116.410156 190.558594 127.03125 188.78125 136.804688 C 190.144531 141.285156 190.785156 145.863281 190.707031 150.542969 C 190.597656 157.992188 188.941406 165.078125 185.734375 171.804688 L 185.679688 171.878906 C 188.742188 176.839844 190.894531 182.167969 192.132812 187.863281 C 192.179688 188.070312 192.183594 188.277344 192.148438 188.484375 C 192.113281 188.691406 192.042969 188.886719 191.929688 189.0625 C 191.816406 189.242188 191.675781 189.394531 191.503906 189.515625 C 191.332031 189.640625 191.144531 189.722656 190.941406 189.773438 C 190.820312 189.800781 190.699219 189.816406 190.578125 189.816406 C 190.210938 189.8125 189.878906 189.699219 189.589844 189.46875 C 189.304688 189.238281 189.117188 188.945312 189.03125 188.585938 C 183.863281 166.371094 169.949219 161.265625 165.523438 160.183594 C 162.519531 172.445312 167.167969 182.996094 167.214844 183.109375 C 167.285156 183.296875 167.316406 183.492188 167.3125 183.691406 C 167.308594 183.894531 167.265625 184.085938 167.1875 184.273438 C 167.109375 184.457031 167 184.625 166.859375 184.769531 C 166.71875 184.914062 166.558594 185.027344 166.375 185.109375 C 166.191406 185.191406 166 185.238281 165.796875 185.25 C 165.597656 185.257812 165.402344 185.234375 165.210938 185.167969 C 165.019531 185.105469 164.847656 185.007812 164.691406 184.878906 C 164.539062 184.75 164.414062 184.597656 164.316406 184.421875 C 163.90625 183.453125 163.550781 182.464844 163.253906 181.453125 C 157.585938 186.171875 152.914062 191.71875 149.238281 198.105469 C 140.996094 212.863281 142.015625 227.925781 152.265625 242.867188 C 157.738281 250.835938 164.9375 256.152344 173.757812 258.847656 C 173.894531 258.871094 174.023438 258.914062 174.148438 258.972656 C 179.746094 260.617188 185.976562 261.199219 192.851562 260.71875 C 199.128906 260.222656 205.265625 259.003906 211.257812 257.054688 L 211.410156 256.945312 C 211.730469 256.710938 212.082031 256.617188 212.476562 256.652344 C 213.425781 256.328125 214.265625 256.023438 214.976562 255.757812 C 214.238281 255.230469 213.527344 254.667969 212.847656 254.070312 C 212.664062 253.9375 212.519531 253.769531 212.40625 253.574219 C 212.292969 253.378906 212.226562 253.167969 212.203125 252.945312 C 212.179688 252.722656 212.203125 252.5 212.273438 252.285156 C 212.34375 252.074219 212.453125 251.882812 212.605469 251.714844 C 212.757812 251.546875 212.9375 251.417969 213.140625 251.324219 C 213.347656 251.234375 213.566406 251.1875 213.789062 251.1875 C 214.015625 251.1875 214.230469 251.234375 214.4375 251.324219 C 214.644531 251.417969 214.824219 251.546875 214.976562 251.714844 C 215.054688 251.785156 222.636719 258.527344 232.867188 259.597656 C 233.058594 255.164062 232.335938 241.25 217.839844 228.1875 C 217.707031 228.039062 217.601562 227.875 217.527344 227.691406 C 217.453125 227.503906 217.417969 227.3125 217.414062 227.113281 C 217.414062 226.914062 217.449219 226.722656 217.519531 226.535156 C 217.589844 226.351562 217.691406 226.183594 217.824219 226.035156 C 217.957031 225.886719 218.113281 225.769531 218.292969 225.679688 C 218.46875 225.589844 218.660156 225.535156 218.855469 225.515625 C 219.054688 225.496094 219.25 225.511719 219.441406 225.566406 C 219.632812 225.621094 219.808594 225.707031 219.96875 225.828125 C 238.796875 242.769531 236.015625 260.800781 235.886719 261.5625 C 235.824219 261.945312 235.640625 262.261719 235.34375 262.511719 C 235.050781 262.765625 234.707031 262.890625 234.316406 262.890625 L 234.242188 262.890625 C 227.664062 262.589844 222.054688 260.132812 218.222656 257.886719 C 217.277344 258.292969 215.347656 259.074219 212.6875 259.945312 C 208.789062 262.839844 185.976562 280.144531 180.164062 293.140625 C 177.214844 299.742188 176.847656 305.125 179.101562 308.703125 C 181.078125 311.839844 185.175781 313.644531 190.625 313.789062 C 202.105469 314.082031 209.460938 310.929688 239.269531 288.167969 C 259.523438 272.703125 286.832031 248.070312 301.925781 218.546875 C 313.652344 195.601562 316.070312 173.46875 309.179688 152.457031 C 309.148438 152.386719 309.121094 152.316406 309.101562 152.238281 Z M 309.101562 152.238281 " fill-opacity="1" fill-rule="nonzero"/><path fill="#d67925" d="M 204.585938 262.175781 C 200.816406 263.023438 197.007812 263.59375 193.152344 263.886719 C 191.523438 264.003906 189.929688 264.058594 188.367188 264.058594 C 183.304688 264.09375 178.34375 263.417969 173.472656 262.035156 C 165.9375 263.550781 158.328125 264.308594 150.640625 264.308594 C 143.007812 264.28125 135.441406 263.550781 127.941406 262.113281 C 120.441406 260.675781 113.140625 258.5625 106.035156 255.769531 C 99.066406 253.054688 92.394531 249.75 86.015625 245.847656 C 101.335938 267.226562 128.246094 291.554688 175.398438 308.390625 C 174.070312 304.992188 173.730469 299.699219 177.246094 291.824219 C 181.882812 281.457031 196.015625 269.054688 204.585938 262.175781 Z M 204.585938 262.175781 " fill-opacity="1" fill-rule="nonzero"/><path fill="#ffffff" d="M 76.210938 194.539062 C 85.988281 199.90625 94.710938 201.773438 102.117188 201.773438 C 118.792969 201.773438 128.746094 192.300781 128.890625 192.164062 C 129.042969 192.03125 129.214844 191.929688 129.40625 191.863281 C 129.597656 191.796875 129.796875 191.765625 130 191.773438 C 130.203125 191.78125 130.398438 191.828125 130.585938 191.910156 C 130.769531 191.992188 130.933594 192.105469 131.078125 192.25 C 131.21875 192.398438 131.328125 192.5625 131.40625 192.75 C 131.488281 192.9375 131.527344 193.132812 131.53125 193.335938 C 131.535156 193.539062 131.5 193.738281 131.429688 193.925781 C 131.359375 194.117188 131.253906 194.289062 131.117188 194.4375 C 130.964844 194.585938 120.199219 204.824219 102.355469 204.941406 C 105.265625 209.789062 108.316406 215.238281 113.1875 218.035156 C 121.941406 223.0625 131.398438 225.0625 141.585938 226.851562 C 138.839844 214.511719 142.265625 204 146.492188 196.457031 C 150.59375 189.316406 155.871094 183.191406 162.332031 178.078125 C 161.320312 173.554688 161.0625 168.984375 161.5625 164.375 L 160.59375 163.761719 C 159.542969 163.097656 158.570312 162.332031 157.683594 161.464844 C 156.792969 160.601562 156 159.652344 155.308594 158.617188 C 154.617188 157.585938 154.039062 156.496094 153.578125 155.339844 C 153.113281 154.1875 152.777344 153 152.5625 151.777344 C 152.3125 150.273438 152.25 148.714844 151.671875 147.304688 C 151.097656 145.890625 149.832031 144.609375 148.308594 144.609375 C 146.78125 144.609375 145.441406 145.953125 144.894531 147.429688 C 144.34375 148.90625 144.359375 150.511719 144.132812 152.070312 C 143.945312 153.375 143.613281 154.640625 143.136719 155.867188 C 142.664062 157.09375 142.054688 158.253906 141.3125 159.34375 C 140.574219 160.433594 139.722656 161.425781 138.753906 162.320312 C 137.789062 163.214844 136.734375 163.988281 135.589844 164.644531 C 127.847656 169.003906 116.921875 166.808594 108.058594 167.375 C 102.628906 165.824219 97.105469 164.820312 91.480469 164.363281 C 85.699219 163.863281 79.683594 164.527344 74.5625 167.253906 C 69.4375 169.980469 65.339844 174.945312 64.636719 180.699219 C 64.558594 181.324219 64.535156 181.949219 64.566406 182.578125 C 65.875 185.097656 67.523438 187.378906 69.503906 189.417969 C 71.488281 191.453125 73.722656 193.160156 76.210938 194.539062 Z M 76.210938 194.539062 " fill-opacity="1" fill-rule="nonzero"/><path fill="#d6781a" d="M 121.476562 100.996094 C 123.996094 103.320312 126.148438 105.949219 127.933594 108.875 C 129.71875 111.800781 131.074219 114.914062 131.988281 118.214844 C 132.195312 119.246094 132.550781 120.222656 133.054688 121.144531 C 133.316406 121.609375 133.675781 121.976562 134.132812 122.25 C 134.59375 122.523438 135.089844 122.664062 135.621094 122.675781 C 136.808594 122.601562 137.75 121.542969 138.046875 120.394531 C 138.277344 119.210938 138.230469 118.039062 137.902344 116.875 C 136.988281 112.59375 135.5 108.519531 133.441406 104.652344 C 132.320312 102.527344 130.558594 100.234375 128.160156 100.367188 C 126.042969 100.460938 123.613281 100.925781 121.476562 100.996094 Z M 121.476562 100.996094 " fill-opacity="1" fill-rule="nonzero"/><path fill="#d6781a" d="M 135.996094 100.507812 C 138.367188 102.980469 140.359375 105.730469 141.964844 108.761719 C 143.566406 111.789062 144.726562 114.980469 145.441406 118.332031 C 145.589844 119.375 145.894531 120.371094 146.34375 121.324219 C 146.578125 121.804688 146.914062 122.195312 147.355469 122.492188 C 147.796875 122.792969 148.285156 122.964844 148.816406 123.003906 C 150.003906 123.003906 151.007812 122.003906 151.375 120.878906 C 151.675781 119.710938 151.699219 118.535156 151.445312 117.355469 C 150.789062 113.015625 149.546875 108.851562 147.722656 104.859375 C 146.726562 102.675781 145.109375 100.273438 142.710938 100.261719 C 140.589844 100.226562 138.136719 100.566406 135.996094 100.507812 Z M 135.996094 100.507812 " fill-opacity="1" fill-rule="nonzero"/><path fill="#ffffff" d="M 159.476562 236.582031 C 157.011719 230.035156 151.039062 226.21875 146.132812 228.082031 C 145.832031 228.191406 145.542969 228.324219 145.257812 228.472656 C 146.820312 233.652344 149.15625 238.457031 152.269531 242.882812 C 153.953125 245.351562 155.871094 247.621094 158.023438 249.695312 C 160.609375 246.699219 161.320312 241.59375 159.476562 236.582031 Z M 159.476562 236.582031 " fill-opacity="1" fill-rule="nonzero"/><path fill="#ffffff" d="M 199.066406 271.011719 C 191.59375 277.632812 183.328125 286.027344 180.15625 293.140625 C 177.203125 299.742188 176.835938 305.125 179.089844 308.703125 C 181.070312 311.839844 185.164062 313.644531 190.617188 313.789062 C 199.855469 314.023438 206.433594 312.019531 224.1875 299.367188 C 229.429688 271.132812 199.066406 271.011719 199.066406 271.011719 Z M 199.066406 271.011719 " fill-opacity="1" fill-rule="nonzero"/><path fill="#808285" d="M 181.125 206.5 L 201.171875 194.066406 C 201.527344 193.847656 201.910156 193.703125 202.324219 193.636719 C 202.738281 193.566406 203.148438 193.582031 203.554688 193.675781 C 203.960938 193.773438 204.335938 193.941406 204.675781 194.1875 C 205.015625 194.429688 205.292969 194.730469 205.515625 195.085938 L 206.035156 195.917969 C 206.253906 196.273438 206.398438 196.660156 206.464844 197.070312 C 206.535156 197.484375 206.519531 197.894531 206.425781 198.300781 C 206.328125 198.707031 206.160156 199.082031 205.914062 199.417969 C 205.671875 199.757812 205.371094 200.039062 205.015625 200.257812 L 184.96875 212.691406 C 184.613281 212.910156 184.230469 213.054688 183.816406 213.121094 C 183.40625 213.191406 182.996094 213.175781 182.585938 213.082031 C 182.179688 212.984375 181.808594 212.816406 181.46875 212.570312 C 181.128906 212.328125 180.847656 212.027344 180.628906 211.671875 L 180.109375 210.839844 C 179.886719 210.484375 179.742188 210.097656 179.675781 209.6875 C 179.609375 209.273438 179.621094 208.863281 179.71875 208.457031 C 179.8125 208.050781 179.980469 207.675781 180.226562 207.339844 C 180.46875 207 180.769531 206.71875 181.125 206.5 Z M 181.125 206.5 " fill-opacity="1" fill-rule="nonzero"/><path fill="#808285" d="M 182.6875 217.21875 L 216.058594 196.527344 C 216.46875 196.273438 216.910156 196.105469 217.386719 196.027344 C 217.867188 195.949219 218.339844 195.964844 218.808594 196.078125 C 219.28125 196.1875 219.710938 196.382812 220.105469 196.664062 C 220.496094 196.945312 220.820312 197.292969 221.074219 197.703125 L 221.078125 197.707031 C 221.332031 198.117188 221.5 198.558594 221.578125 199.035156 C 221.65625 199.511719 221.640625 199.984375 221.527344 200.457031 C 221.417969 200.925781 221.222656 201.355469 220.941406 201.75 C 220.660156 202.140625 220.3125 202.464844 219.902344 202.71875 L 186.53125 223.410156 C 186.121094 223.664062 185.679688 223.832031 185.203125 223.910156 C 184.726562 223.988281 184.25 223.972656 183.78125 223.863281 C 183.3125 223.75 182.878906 223.554688 182.488281 223.273438 C 182.09375 222.992188 181.769531 222.648438 181.515625 222.238281 L 181.511719 222.230469 C 181.257812 221.820312 181.09375 221.378906 181.015625 220.902344 C 180.9375 220.425781 180.953125 219.953125 181.0625 219.484375 C 181.171875 219.011719 181.367188 218.582031 181.648438 218.1875 C 181.929688 217.796875 182.277344 217.472656 182.6875 217.21875 Z M 182.6875 217.21875 " fill-opacity="1" fill-rule="nonzero"/><path fill="#808285" d="M 192.636719 222.316406 L 211.640625 210.53125 C 211.988281 210.316406 212.367188 210.171875 212.773438 210.105469 C 213.179688 210.039062 213.585938 210.054688 213.984375 210.148438 C 214.386719 210.242188 214.753906 210.410156 215.089844 210.648438 C 215.421875 210.890625 215.699219 211.183594 215.917969 211.535156 L 216.484375 212.449219 C 216.703125 212.800781 216.84375 213.175781 216.910156 213.582031 C 216.976562 213.988281 216.964844 214.394531 216.871094 214.792969 C 216.777344 215.195312 216.609375 215.5625 216.371094 215.898438 C 216.128906 216.230469 215.835938 216.507812 215.484375 216.722656 L 196.480469 228.507812 C 196.132812 228.722656 195.753906 228.867188 195.347656 228.933594 C 194.941406 229 194.535156 228.984375 194.136719 228.890625 C 193.734375 228.796875 193.367188 228.628906 193.03125 228.390625 C 192.695312 228.152344 192.421875 227.855469 192.203125 227.507812 L 191.636719 226.589844 C 191.417969 226.238281 191.277344 225.863281 191.210938 225.457031 C 191.140625 225.050781 191.15625 224.644531 191.25 224.246094 C 191.34375 223.84375 191.511719 223.476562 191.75 223.144531 C 191.992188 222.808594 192.285156 222.53125 192.636719 222.316406 Z M 192.636719 222.316406 " fill-opacity="1" fill-rule="nonzero"/><path fill="#808285" d="M 210.535156 140.308594 C 210.273438 140.34375 210.023438 140.421875 209.792969 140.546875 C 209.558594 140.671875 209.355469 140.832031 209.179688 141.03125 C 209.003906 141.226562 208.871094 141.449219 208.773438 141.695312 C 208.679688 141.945312 208.632812 142.199219 208.628906 142.464844 C 208.628906 142.726562 208.671875 142.984375 208.765625 143.230469 C 208.855469 143.480469 208.984375 143.703125 209.15625 143.902344 C 209.328125 144.105469 209.53125 144.269531 209.761719 144.394531 C 209.992188 144.523438 210.242188 144.605469 210.5 144.644531 C 217.664062 145.75 224.296875 148.25 230.402344 152.15625 C 243.847656 160.808594 252.609375 175.480469 256.808594 190.902344 C 259.316406 200.121094 260.347656 209.621094 260.570312 219.1875 C 260.6875 224.179688 267.675781 225.363281 269.363281 220.667969 C 271.140625 215.839844 272.296875 210.867188 272.832031 205.75 C 273.363281 200.632812 273.257812 195.527344 272.515625 190.4375 C 269.957031 173.09375 259.964844 156.792969 245.164062 147.386719 C 234.648438 140.707031 222.496094 138.492188 210.535156 140.308594 Z M 210.535156 140.308594 " fill-opacity="1" fill-rule="nonzero"/><path fill="#808285" d="M 297.445312 209.175781 C 296.019531 212.429688 291.097656 211.089844 291.472656 207.582031 C 293.597656 187.828125 287.78125 167.125 275.160156 152.007812 C 261.757812 135.945312 241.121094 126.734375 220.589844 126.898438 C 220.308594 126.898438 220.039062 126.851562 219.773438 126.757812 C 219.507812 126.660156 219.269531 126.519531 219.054688 126.339844 C 218.839844 126.160156 218.664062 125.945312 218.527344 125.703125 C 218.386719 125.457031 218.292969 125.195312 218.246094 124.921875 C 218.203125 124.644531 218.203125 124.367188 218.257812 124.089844 C 218.308594 123.816406 218.40625 123.554688 218.550781 123.316406 C 218.695312 123.074219 218.875 122.863281 219.09375 122.6875 C 219.3125 122.511719 219.554688 122.378906 219.820312 122.285156 C 243.78125 114.398438 272.203125 121.828125 288.554688 141.949219 C 303.972656 160.886719 306.96875 187.460938 297.445312 209.175781 Z M 297.445312 209.175781 " fill-opacity="1" fill-rule="nonzero"/><path fill="#808285" d="M 217.207031 171.125 C 228.144531 177 236.839844 189.09375 239.980469 202.734375 C 240.054688 203.101562 240.234375 203.402344 240.519531 203.644531 C 240.800781 203.882812 241.132812 204.007812 241.503906 204.019531 C 241.875 204.03125 242.210938 203.921875 242.507812 203.699219 C 242.808594 203.472656 243 203.179688 243.09375 202.820312 C 245.347656 194.613281 244.902344 185.8125 239.902344 178.753906 C 234.78125 171.539062 225.777344 167.507812 217.796875 168.125 C 217.449219 168.160156 217.140625 168.292969 216.878906 168.53125 C 216.621094 168.769531 216.453125 169.058594 216.386719 169.40625 C 216.320312 169.75 216.359375 170.082031 216.511719 170.398438 C 216.664062 170.71875 216.898438 170.957031 217.207031 171.125 Z M 217.207031 171.125 " fill-opacity="1" fill-rule="nonzero"/><path fill="#808285" d="M 197.390625 77.027344 C 198.988281 76.039062 200.621094 74.65625 200.65625 72.773438 C 200.6875 71.179688 199.550781 69.878906 198.480469 68.726562 C 196.539062 66.65625 194.578125 64.542969 192.140625 63.023438 C 189.707031 61.503906 186.75 60.671875 183.976562 61.371094 C 179.796875 62.433594 177.0625 66.898438 177.164062 71.203125 C 177.246094 74.570312 179.484375 81.078125 183.222656 81.9375 C 187.265625 82.878906 194.132812 79.0625 197.390625 77.027344 Z M 197.390625 77.027344 " fill-opacity="1" fill-rule="nonzero"/><path fill="#808285" d="M 210.820312 81.160156 C 208.0625 88 200.429688 92.417969 193.164062 93.453125 C 191.035156 91.328125 188.75 88.820312 186.59375 86.671875 C 188.347656 86.605469 190.074219 86.347656 191.773438 85.90625 C 193.472656 85.464844 195.105469 84.847656 196.667969 84.050781 C 198.234375 83.253906 199.695312 82.300781 201.050781 81.191406 C 202.410156 80.078125 203.632812 78.835938 204.71875 77.457031 C 206.34375 78.433594 209.199219 80.199219 210.820312 81.160156 Z M 210.820312 81.160156 " fill-opacity="1" fill-rule="nonzero"/><path fill="#808285" d="M 220.105469 88.941406 C 219.421875 91.234375 218.367188 93.335938 216.941406 95.253906 C 215.515625 97.171875 213.800781 98.789062 211.804688 100.101562 C 210.570312 100.980469 209.210938 101.550781 207.71875 101.820312 C 205.625 102.039062 203.6875 101.585938 201.902344 100.46875 C 200.207031 99.453125 198.652344 98.257812 197.238281 96.882812 C 204.003906 96.191406 210.15625 91.433594 212.425781 85.136719 C 214.917969 86.535156 217.597656 87.542969 220.105469 88.941406 Z M 220.105469 88.941406 " fill-opacity="1" fill-rule="nonzero"/><path fill="#999999" d="M 309.175781 152.464844 C 309.144531 152.390625 309.121094 152.316406 309.101562 152.238281 C 308.523438 150.492188 307.867188 148.75 307.160156 147.015625 C 307.246094 147.28125 307.449219 147.933594 307.691406 148.957031 C 310.570312 160.21875 320.191406 215.695312 250.21875 273.128906 C 244.902344 277.496094 239.671875 281.972656 234.53125 286.5625 C 223.554688 296.394531 200.226562 314.039062 179.078125 308.703125 C 181.058594 311.839844 185.152344 313.644531 190.605469 313.789062 C 202.082031 314.082031 209.4375 310.929688 239.25 288.167969 C 259.5 272.703125 286.8125 248.070312 301.90625 218.546875 C 313.648438 195.609375 316.0625 173.472656 309.175781 152.464844 Z M 309.175781 152.464844 " fill-opacity="1" fill-rule="nonzero"/><path fill="#e6e7e8" d="M 191.917969 313.804688 L 193.890625 313.804688 L 194.582031 313.761719 L 194.890625 313.761719 L 195.710938 313.683594 L 196.109375 313.640625 L 196.640625 313.570312 L 197.089844 313.507812 L 197.566406 313.429688 L 198.03125 313.347656 L 198.507812 313.253906 C 198.78125 313.199219 199.039062 313.136719 199.332031 313.074219 L 199.820312 312.957031 L 200.355469 312.808594 L 200.769531 312.691406 L 201.328125 312.523438 L 201.738281 312.390625 L 202.320312 312.195312 L 202.6875 312.066406 C 203.417969 311.808594 204.167969 311.511719 204.945312 311.175781 L 205.285156 311.027344 L 205.996094 310.707031 L 206.359375 310.539062 C 206.609375 310.421875 206.859375 310.304688 207.109375 310.175781 L 207.417969 310.027344 C 208.308594 309.582031 209.246094 309.085938 210.21875 308.539062 L 210.492188 308.390625 L 211.40625 307.859375 L 211.746094 307.660156 L 212.707031 307.09375 L 212.980469 306.921875 C 214.101562 306.242188 215.28125 305.503906 216.527344 304.691406 L 216.699219 304.585938 L 217.878906 303.804688 L 218.214844 303.582031 L 219.425781 302.761719 C 219.515625 302.699219 219.605469 302.632812 219.703125 302.574219 C 221.117188 301.609375 222.613281 300.5625 224.203125 299.433594 C 224.503906 297.832031 224.695312 296.21875 224.777344 294.59375 C 212.542969 303.582031 195.199219 312.832031 179.105469 308.773438 C 181.085938 311.910156 185.179688 313.714844 190.632812 313.859375 L 191.601562 313.859375 Z M 191.917969 313.804688 " fill-opacity="1" fill-rule="nonzero"/><path fill="#999999" d="M 190.234375 132.175781 C 190.234375 132.175781 199.390625 142.859375 192.359375 169.269531 L 185.632812 168.050781 C 185.632812 168.050781 192.472656 143.390625 186.589844 135.21875 Z M 190.234375 132.175781 " fill-opacity="1" fill-rule="nonzero"/><path fill="#c9c9c9" d="M 308.925781 151.804688 C 306.007812 143.332031 301.929688 135.460938 296.695312 128.1875 C 275.351562 98.03125 246.417969 99.863281 231.070312 103.648438 C 225.726562 104.976562 220.585938 106.855469 215.644531 109.28125 C 215.550781 109.34375 215.453125 109.394531 215.347656 109.429688 C 203.464844 115.320312 193.964844 123.78125 190.226562 132.175781 C 190.226562 132.175781 217.796875 99.640625 259.511719 106.433594 C 283.398438 110.324219 299.507812 133.054688 308.925781 151.804688 Z M 308.925781 151.804688 " fill-opacity="1" fill-rule="nonzero"/><path fill="#c9c9c9" d="M 296.996094 123.257812 L 297.054688 123.210938 C 291.976562 114.671875 285.804688 107.132812 279.257812 103.414062 C 268.839844 97.492188 256.511719 96.238281 244.570312 95.027344 L 242.167969 94.785156 C 229.972656 93.519531 212.4375 88.242188 203.144531 77.519531 C 201.773438 75.925781 200.5625 74.210938 199.390625 72.546875 C 197.695312 70.128906 196.089844 67.84375 194.042969 65.96875 C 190.933594 63.128906 185.8125 61.375 182.425781 63.730469 C 180.40625 65.132812 179.273438 67.878906 179.414062 70.863281 C 179.753906 70.023438 183.410156 61.550781 190.96875 66.199219 C 198.933594 71.085938 199.5625 84.960938 222.765625 92.785156 C 249.585938 101.855469 260.324219 95.441406 273.851562 104.296875 C 282.574219 108.5 290.40625 114.863281 296.996094 123.257812 Z M 296.996094 123.257812 " fill-opacity="1" fill-rule="nonzero"/><path fill="#8e8e8e" d="M 200.429688 73.945312 L 199.433594 72.546875 C 197.738281 70.128906 196.132812 67.84375 194.082031 65.96875 C 190.976562 63.128906 185.855469 61.375 182.46875 63.730469 C 180.445312 65.132812 179.3125 67.878906 179.457031 70.863281 C 179.796875 70.023438 183.453125 61.550781 191.007812 66.199219 C 194.269531 68.203125 196.296875 71.722656 199.15625 75.714844 C 199.710938 75.21875 200.132812 74.628906 200.429688 73.945312 Z M 200.429688 73.945312 " fill-opacity="1" fill-rule="nonzero"/><path fill="#8e8e8e" d="M 202.453125 79.945312 C 204.210938 81.953125 206.148438 83.765625 208.269531 85.382812 C 208.796875 84.742188 209.273438 84.070312 209.703125 83.363281 C 207.617188 81.894531 205.699219 80.234375 203.949219 78.382812 C 203.480469 78.929688 202.976562 79.445312 202.453125 79.945312 Z M 202.453125 79.945312 " fill-opacity="1" fill-rule="nonzero"/><path fill="#8e8e8e" d="M 211.34375 87.503906 C 213.828125 89.050781 216.425781 90.367188 219.144531 91.457031 C 219.5 90.679688 219.804688 89.882812 220.054688 89.066406 C 217.414062 87.945312 214.863281 86.640625 212.410156 85.152344 C 212.117188 85.964844 211.757812 86.746094 211.34375 87.503906 Z M 211.34375 87.503906 " fill-opacity="1" fill-rule="nonzero"/><path fill="#ffc48f" d="M 185.484375 137.140625 C 185.484375 137.0625 185.515625 136.988281 185.527344 136.90625 C 182.519531 127.6875 176.121094 119.671875 166.378906 112.992188 C 147.695312 100.136719 127.890625 100.769531 114.570312 103.53125 L 113.988281 103.53125 C 113.921875 103.519531 113.859375 103.503906 113.796875 103.484375 L 113.6875 103.453125 L 113.507812 103.371094 C 113.476562 103.355469 113.445312 103.339844 113.417969 103.320312 C 113.363281 103.289062 113.3125 103.25 113.261719 103.207031 C 113.230469 103.1875 113.199219 103.164062 113.171875 103.136719 C 113.125 103.09375 113.089844 103.046875 113.046875 103.003906 C 113.015625 102.972656 112.988281 102.941406 112.964844 102.902344 C 112.929688 102.859375 112.898438 102.8125 112.875 102.761719 C 112.847656 102.722656 112.824219 102.679688 112.804688 102.632812 C 112.78125 102.582031 112.761719 102.53125 112.746094 102.480469 C 112.730469 102.441406 112.71875 102.40625 112.703125 102.367188 C 112.652344 102.164062 107.535156 83.023438 93.398438 73.945312 C 93.398438 73.945312 107.226562 89.304688 108.847656 103.136719 C 108.878906 103.398438 108.933594 103.65625 109.011719 103.90625 C 109.09375 104.15625 109.199219 104.398438 109.328125 104.625 C 109.457031 104.855469 109.609375 105.070312 109.785156 105.265625 C 109.957031 105.464844 110.148438 105.644531 110.359375 105.800781 C 110.570312 105.960938 110.792969 106.097656 111.03125 106.207031 C 111.269531 106.320312 111.519531 106.410156 111.773438 106.472656 C 112.03125 106.53125 112.289062 106.566406 112.554688 106.578125 C 112.816406 106.585938 113.078125 106.566406 113.339844 106.523438 C 126.957031 103.917969 159.371094 101.527344 179.085938 128.808594 C 186.472656 139.03125 186.664062 153.5625 183.367188 168.832031 L 183.558594 168.894531 C 186.066406 162.976562 187.382812 156.800781 187.503906 150.375 C 187.566406 146.355469 187.0625 142.40625 185.988281 138.535156 C 185.578125 138.15625 185.410156 137.695312 185.484375 137.140625 Z M 185.484375 137.140625 " fill-opacity="1" fill-rule="nonzero"/><path fill="#ef8e37" d="M 140.195312 105.8125 C 143.144531 106.230469 146.050781 106.851562 148.914062 107.667969 C 148.558594 106.714844 148.167969 105.777344 147.742188 104.855469 C 147.632812 104.617188 147.515625 104.371094 147.390625 104.125 C 144.171875 103.253906 140.90625 102.640625 137.589844 102.277344 C 138.527344 103.402344 139.398438 104.582031 140.195312 105.8125 Z M 140.195312 105.8125 " fill-opacity="1" fill-rule="nonzero"/><path fill="#ef8e37" d="M 133.464844 104.625 C 132.953125 103.625 132.320312 102.714844 131.554688 101.894531 C 128.609375 101.835938 125.675781 101.953125 122.746094 102.25 C 123.644531 103.160156 124.492188 104.117188 125.289062 105.121094 C 128.105469 104.988281 130.917969 105 133.734375 105.15625 C 133.644531 105.007812 133.558594 104.800781 133.464844 104.625 Z M 133.464844 104.625 " fill-opacity="1" fill-rule="nonzero"/><path fill="#ffc48f" d="M 164.652344 108.082031 C 165.714844 108.730469 166.777344 109.402344 167.84375 110.132812 C 166.402344 86.746094 149.226562 77.601562 144.375 75.484375 C 144.375 75.484375 165.652344 93.925781 164.636719 108.082031 Z M 164.652344 108.082031 " fill-opacity="1" fill-rule="nonzero"/><path fill="#d67925" d="M 76.210938 194.539062 C 85.988281 199.90625 94.710938 201.773438 102.117188 201.773438 C 118.792969 201.773438 128.746094 192.300781 128.890625 192.164062 C 109.148438 200.34375 94.660156 198.84375 84.542969 194.460938 C 71.304688 188.71875 63.300781 175.179688 63.800781 160.765625 C 65.140625 120.824219 104.222656 105.640625 104.222656 105.640625 C 104.222656 105.640625 101.742188 106.34375 97.734375 107.667969 C 87.675781 111.78125 80.347656 119.039062 80.257812 119.128906 C 80.242188 119.144531 80.226562 119.15625 80.207031 119.167969 C 80.195312 119.183594 80.183594 119.199219 80.167969 119.214844 C 66.539062 130.796875 58.605469 150.527344 60.414062 168.316406 C 61.617188 180.296875 67.242188 189.613281 76.210938 194.539062 Z M 76.210938 194.539062 " fill-opacity="1" fill-rule="nonzero"/><path fill="#d67925" d="M 63.574219 187.109375 C 63.613281 187.640625 63.664062 188.171875 63.722656 188.769531 C 64.441406 189.242188 65.15625 189.699219 65.847656 190.140625 C 65.03125 189.171875 64.273438 188.164062 63.574219 187.109375 Z M 63.574219 187.109375 " fill-opacity="1" fill-rule="nonzero"/><path fill="#e6e7e8" d="M 84.542969 194.460938 C 82.472656 193.550781 80.507812 192.445312 78.652344 191.148438 C 76.796875 189.851562 75.089844 188.386719 73.523438 186.75 C 71.960938 185.117188 70.570312 183.34375 69.355469 181.433594 C 68.144531 179.527344 67.128906 177.515625 66.3125 175.40625 C 65.429688 177.078125 64.871094 178.847656 64.636719 180.722656 C 64.558594 181.34375 64.535156 181.96875 64.566406 182.597656 C 64.890625 183.214844 65.238281 183.816406 65.597656 184.398438 C 65.664062 184.496094 65.726562 184.589844 65.785156 184.6875 C 66.09375 185.167969 66.40625 185.644531 66.738281 186.101562 C 66.832031 186.238281 66.9375 186.371094 67.039062 186.507812 C 67.339844 186.917969 67.652344 187.316406 67.972656 187.703125 L 68.359375 188.167969 C 68.667969 188.523438 68.980469 188.867188 69.300781 189.230469 C 69.453125 189.394531 69.605469 189.554688 69.761719 189.707031 C 70.078125 190.027344 70.402344 190.335938 70.730469 190.636719 L 71.261719 191.105469 C 71.597656 191.398438 71.945312 191.675781 72.289062 191.953125 C 72.46875 192.09375 72.652344 192.242188 72.820312 192.382812 C 73.195312 192.664062 73.582031 192.914062 73.96875 193.195312 C 74.140625 193.304688 74.300781 193.429688 74.503906 193.539062 C 75.066406 193.902344 75.640625 194.253906 76.234375 194.601562 C 86.015625 199.972656 94.738281 201.835938 102.140625 201.835938 C 118.820312 201.835938 128.773438 192.367188 128.914062 192.226562 C 109.148438 200.34375 94.660156 198.84375 84.542969 194.460938 Z M 84.542969 194.460938 " fill-opacity="1" fill-rule="nonzero"/><path fill="#d67925" d="M 88.160156 234.941406 C 76.542969 220.335938 70.65625 194.714844 70.65625 194.714844 L 70.621094 194.671875 C 67.851562 192.535156 65.496094 190.015625 63.550781 187.109375 C 64.191406 195.191406 66.695312 211.558594 76.386719 230.238281 C 77.820312 233 79.453125 235.886719 81.304688 238.859375 C 84.496094 241.269531 119.964844 267.089844 167.523438 259.847656 C 164.738281 258.585938 162.117188 257.039062 159.667969 255.210938 C 111.023438 255.535156 88.160156 234.941406 88.160156 234.941406 Z M 88.160156 234.941406 " fill-opacity="1" fill-rule="nonzero"/><path fill="#ea9c4e" d="M 106.007812 255.769531 C 106.007812 255.769531 139.929688 287.996094 176.988281 297.097656 C 176.988281 297.097656 184.585938 279.894531 193.074219 274.367188 C 193.074219 274.367188 170.289062 274.898438 153.34375 264.269531 C 153.34375 264.277344 120.726562 260.667969 106.007812 255.769531 Z M 106.007812 255.769531 " fill-opacity="1" fill-rule="nonzero"/><path fill="#d67925" d="M 134.621094 225.535156 C 134.621094 225.535156 131.707031 246.515625 152.863281 262.472656 L 169.199219 258.882812 C 169.199219 258.882812 146.042969 247.347656 143.226562 226.996094 Z M 134.621094 225.535156 " fill-opacity="1" fill-rule="nonzero"/><path fill="#e6e7e8" d="M 134.621094 225.535156 C 134.621094 225.535156 130.105469 198.035156 162.332031 178.078125 L 163.230469 181.453125 C 163.230469 181.453125 135.347656 203.777344 142.160156 225.535156 Z M 134.621094 225.535156 " fill-opacity="1" fill-rule="nonzero"/><path fill="#c9c9c9" d="M 189.03125 188.585938 C 189.03125 188.585938 181.6875 168.195312 167.542969 163.386719 C 167.542969 163.386719 164.070312 169.851562 167.214844 183.109375 C 166.175781 181.402344 165.351562 179.59375 164.742188 177.691406 C 164.132812 175.789062 163.753906 173.84375 163.609375 171.851562 C 163.460938 169.859375 163.550781 167.875 163.871094 165.902344 C 164.195312 163.933594 164.746094 162.027344 165.523438 160.183594 C 165.523438 160.183594 186.382812 162.714844 189.03125 188.585938 Z M 189.03125 188.585938 " fill-opacity="1" fill-rule="nonzero"/><path fill="#c9c9c9" d="M 217.832031 228.1875 C 217.832031 228.1875 228.046875 240.792969 230.371094 256.828125 C 224.921875 256.054688 219.78125 254.351562 214.949219 251.714844 C 214.949219 251.714844 225.371094 264.535156 234.414062 260.105469 C 234.429688 260.105469 232.0625 234.15625 217.832031 228.1875 Z M 217.832031 228.1875 " fill-opacity="1" fill-rule="nonzero"/><path fill="#999999" d="M 155.066406 245.847656 C 155.066406 245.847656 177.367188 267.558594 212.824219 254.046875 L 216.351562 255.75 C 216.351562 255.75 175.027344 277.203125 155.066406 245.847656 Z M 155.066406 245.847656 " fill-opacity="1" fill-rule="nonzero"/><path fill="#999999" d="M 230.515625 238.640625 C 230.515625 238.640625 236.972656 233.4375 235.300781 217.765625 C 235.300781 217.765625 246.417969 229.113281 230.6875 242.433594 Z M 230.515625 238.640625 " fill-opacity="1" fill-rule="nonzero"/><path fill="#ef8f99" d="M 87.316406 109.53125 C 88.714844 107.816406 89.894531 105.960938 90.851562 103.964844 C 91.8125 101.96875 92.523438 99.890625 92.984375 97.722656 C 93.445312 95.558594 93.648438 93.371094 93.589844 91.15625 C 93.53125 88.945312 93.210938 86.769531 92.632812 84.632812 C 94.179688 83.570312 95.691406 83.765625 97.167969 84.925781 C 98.648438 86.082031 99.558594 87.792969 100.429688 89.453125 C 101.890625 92.238281 103.375 95.101562 103.785156 98.222656 C 104.195312 101.339844 103.296875 104.824219 100.769531 106.726562 C 96.867188 109.578125 90.984375 106.390625 87.316406 109.53125 Z M 87.316406 109.53125 " fill-opacity="1" fill-rule="nonzero"/><path fill="#d67925" d="M 144.394531 75.484375 C 144.394531 75.484375 141.011719 95.222656 148.117188 101.023438 L 139.074219 99.332031 C 139.074219 99.332031 141.269531 79.5 144.394531 75.484375 Z M 144.394531 75.484375 " fill-opacity="1" fill-rule="nonzero"/><g clip-path="url(#f6754dded5)"><path fill="#231f20" d="M 312.734375 150.847656 C 308.925781 134.769531 296.003906 108.480469 281.167969 100.054688 C 270.039062 93.734375 257.300781 92.441406 245.003906 91.191406 L 242.605469 90.941406 C 231.109375 89.753906 214.660156 84.859375 206.113281 74.996094 C 204.847656 73.503906 203.660156 71.945312 202.554688 70.332031 C 200.8125 67.847656 199.007812 65.28125 196.648438 63.125 C 192.355469 59.175781 185.328125 57.027344 180.21875 60.558594 C 176.894531 62.867188 175.085938 67.355469 175.613281 71.988281 C 176.085938 76.132812 178.195312 79.816406 179.980469 82.570312 C 186.546875 92.667969 196.28125 101.132812 208.90625 107.714844 C 209.316406 107.925781 209.652344 108.105469 209.9375 108.246094 C 199.273438 114.273438 190.792969 122.25 186.925781 130.28125 C 183.945312 124.089844 179.175781 117.871094 171.792969 112.136719 C 171.175781 80.628906 144.621094 71.402344 144.351562 71.3125 C 144.097656 71.230469 143.835938 71.191406 143.570312 71.199219 C 143.304688 71.207031 143.046875 71.257812 142.800781 71.355469 C 142.550781 71.453125 142.328125 71.585938 142.125 71.761719 C 141.925781 71.9375 141.761719 72.144531 141.632812 72.375 C 136.945312 81.003906 136.621094 92.988281 136.738281 98.300781 C 129.734375 97.699219 122.777344 98.046875 115.863281 99.339844 C 113.996094 93.652344 107.78125 77.730469 94.058594 69.816406 C 93.8125 69.675781 93.550781 69.582031 93.273438 69.539062 C 92.992188 69.496094 92.714844 69.503906 92.4375 69.5625 C 92.164062 69.621094 91.90625 69.730469 91.671875 69.886719 C 91.433594 70.039062 91.234375 70.234375 91.070312 70.464844 C 90.398438 71.425781 74.910156 93.703125 76.761719 117.0625 C 62.769531 129.523438 54.703125 150.109375 56.566406 168.703125 C 56.976562 172.976562 57.980469 177.101562 59.589844 181.082031 C 59.542969 181.246094 59.515625 181.414062 59.507812 181.582031 C 59.488281 182.507812 58.757812 204.484375 72.890625 231.835938 C 74.394531 234.753906 76.117188 237.800781 78.070312 240.9375 C 78.128906 241.046875 78.195312 241.152344 78.269531 241.25 C 93.210938 265.054688 121.878906 294.023438 176.734375 312.996094 C 176.972656 313.082031 177.21875 313.121094 177.472656 313.121094 C 177.558594 313.121094 177.640625 313.121094 177.71875 313.121094 C 180.65625 315.949219 185.078125 317.550781 190.519531 317.691406 L 191.867188 317.691406 C 204.40625 317.691406 213.390625 312.8125 241.609375 291.261719 C 262.183594 275.550781 289.9375 250.496094 305.363281 220.332031 C 317.6875 196.199219 320.132812 172.933594 312.734375 150.847656 Z M 212.574219 104.519531 C 212.175781 104.300781 211.691406 104.035156 211.027344 103.683594 C 199.105469 97.472656 189.945312 89.539062 183.8125 80.09375 C 182.21875 77.621094 180.511719 74.660156 180.148438 71.476562 C 179.871094 69.019531 180.589844 65.84375 182.808594 64.289062 C 185.902344 62.136719 190.664062 63.808594 193.574219 66.472656 C 195.574219 68.296875 197.15625 70.554688 198.832031 72.941406 C 200.015625 74.679688 201.28125 76.351562 202.628906 77.960938 C 212.042969 88.835938 229.753906 94.183594 242.089844 95.457031 L 244.496094 95.703125 C 256.347656 96.910156 268.601562 98.15625 278.898438 104.003906 C 283.25 106.46875 287.40625 110.65625 291.230469 115.695312 C 270.488281 95.074219 245.832031 96.53125 231.957031 99.6875 C 226.082031 101.035156 220.425781 103.011719 214.992188 105.613281 C 214.144531 105.335938 213.339844 104.972656 212.574219 104.519531 Z M 144.738281 76.351562 C 150.089844 78.757812 165.203125 87.402344 167.074219 108.773438 C 163.179688 106.222656 159.058594 104.113281 154.710938 102.441406 C 150.367188 100.769531 145.894531 99.570312 141.292969 98.847656 C 141.1875 94.746094 141.269531 84.246094 144.738281 76.363281 Z M 81.335938 108.996094 C 82.375 104.605469 83.894531 100.386719 85.894531 96.34375 C 87.894531 92.300781 90.324219 88.535156 93.1875 85.046875 C 99.988281 91.972656 101.328125 99.164062 101.578125 102.308594 C 92.753906 104.652344 85.335938 109.792969 81.15625 113.199219 C 81.15625 111.789062 81.21875 110.386719 81.335938 108.996094 Z M 64.480469 189.539062 C 67.195312 193.007812 70.484375 195.800781 74.347656 197.917969 C 84.746094 203.632812 94.058594 205.625 102.035156 205.625 C 120.351562 205.625 131.429688 195.078125 131.589844 194.921875 C 131.804688 194.710938 131.972656 194.464844 132.089844 194.1875 C 132.207031 193.910156 132.269531 193.621094 132.273438 193.320312 C 132.273438 193.019531 132.21875 192.726562 132.105469 192.449219 C 131.992188 192.167969 131.832031 191.921875 131.621094 191.703125 C 131.40625 191.488281 131.164062 191.324219 130.886719 191.207031 C 130.609375 191.085938 130.316406 191.027344 130.015625 191.023438 C 129.714844 191.019531 129.421875 191.074219 129.144531 191.1875 C 128.863281 191.300781 128.617188 191.464844 128.398438 191.675781 C 127.832031 192.207031 118.320312 201.1875 102.296875 201.1875 C 94.984375 201.1875 86.339844 199.324219 76.523438 193.945312 C 67.769531 189.128906 62.285156 180 61.082031 168.253906 C 59.300781 150.671875 67.148438 131.179688 80.601562 119.734375 C 80.601562 119.734375 80.644531 119.6875 80.671875 119.667969 L 80.742188 119.609375 C 80.84375 119.507812 91.378906 109.101562 104.367188 106.320312 C 104.863281 106.214844 105.277344 105.96875 105.609375 105.582031 C 105.941406 105.195312 106.121094 104.75 106.152344 104.242188 C 106.191406 103.695312 106.824219 91.085938 94.589844 80.082031 C 94.375 79.890625 94.128906 79.742188 93.855469 79.640625 C 93.582031 79.542969 93.300781 79.496094 93.007812 79.503906 C 92.71875 79.511719 92.4375 79.574219 92.171875 79.691406 C 91.902344 79.804688 91.667969 79.96875 91.464844 80.171875 C 91.347656 80.289062 90.542969 81.109375 89.335938 82.558594 C 91.027344 79.167969 92.601562 76.511719 93.589844 74.886719 C 107.050781 83.953125 111.976562 102.308594 112.035156 102.519531 C 112.035156 102.578125 112.078125 102.628906 112.09375 102.6875 C 112.109375 102.746094 112.148438 102.828125 112.179688 102.898438 C 112.210938 102.96875 112.246094 103.03125 112.285156 103.09375 C 112.320312 103.160156 112.359375 103.222656 112.402344 103.28125 C 112.445312 103.339844 112.496094 103.398438 112.546875 103.457031 C 112.59375 103.511719 112.640625 103.5625 112.695312 103.609375 L 112.859375 103.742188 C 112.917969 103.792969 112.976562 103.835938 113.039062 103.875 C 113.097656 103.910156 113.160156 103.945312 113.222656 103.972656 C 113.289062 104.003906 113.359375 104.042969 113.433594 104.066406 C 113.496094 104.089844 113.558594 104.109375 113.621094 104.125 L 113.859375 104.183594 L 114.050781 104.183594 C 114.132812 104.191406 114.21875 104.191406 114.300781 104.183594 L 114.699219 104.183594 C 127.890625 101.425781 147.5 100.816406 165.984375 113.535156 C 176.675781 120.894531 182.253906 129.199219 184.882812 137.136719 C 184.917969 137.410156 185.003906 137.667969 185.132812 137.910156 C 189.109375 150.820312 185.410156 162.621094 183.382812 167.582031 C 175.082031 157.484375 165.214844 156.164062 164.617188 156.089844 C 164.351562 156.054688 164.089844 156.070312 163.828125 156.128906 C 163.570312 156.191406 163.328125 156.292969 163.101562 156.441406 C 162.878906 156.585938 162.6875 156.765625 162.527344 156.976562 C 162.363281 157.191406 162.246094 157.425781 162.167969 157.683594 C 160.703125 162.8125 160.265625 168.027344 160.855469 173.328125 C 160.402344 173.933594 159.84375 174.410156 159.175781 174.761719 C 158.507812 175.113281 157.796875 175.304688 157.046875 175.335938 C 156.042969 175.40625 155.1875 175.085938 154.476562 174.382812 C 153.488281 173.316406 153.125 171.589844 153.019531 170.378906 C 153.042969 169.988281 153.042969 169.597656 153.019531 169.203125 C 156.402344 168.890625 158.945312 167.402344 159.066406 165.457031 C 159.210938 163.097656 155.722656 160.964844 151.269531 160.675781 C 146.816406 160.382812 143.101562 162.09375 142.953125 164.453125 C 142.835938 166.398438 145.183594 168.171875 148.507812 168.914062 C 148.496094 168.976562 148.484375 169.039062 148.484375 169.101562 C 148.457031 169.535156 148.457031 169.964844 148.484375 170.394531 C 148.417969 171.746094 148.007812 174.050781 145.972656 174.347656 C 143.933594 174.648438 142.25 174.125 141.664062 173.449219 C 141.535156 173.308594 141.246094 172.976562 141.488281 172.113281 C 141.554688 171.824219 141.566406 171.539062 141.519531 171.25 C 141.476562 170.957031 141.378906 170.6875 141.230469 170.433594 C 141.078125 170.183594 140.886719 169.96875 140.65625 169.789062 C 140.421875 169.613281 140.164062 169.484375 139.882812 169.40625 C 139.597656 169.324219 139.3125 169.304688 139.019531 169.335938 C 138.726562 169.367188 138.453125 169.453125 138.195312 169.59375 C 137.9375 169.730469 137.710938 169.914062 137.523438 170.136719 C 137.335938 170.363281 137.195312 170.617188 137.105469 170.894531 C 136.800781 171.859375 136.75 172.835938 136.953125 173.824219 C 137.15625 174.8125 137.589844 175.691406 138.253906 176.453125 C 140.003906 178.429688 143.21875 179.34375 146.636719 178.839844 C 148.207031 178.644531 149.542969 177.976562 150.648438 176.839844 C 150.8125 177.0625 150.992188 177.273438 151.179688 177.472656 C 151.953125 178.257812 152.851562 178.855469 153.875 179.269531 C 154.894531 179.683594 155.953125 179.878906 157.054688 179.859375 C 157.871094 179.859375 158.675781 179.746094 159.460938 179.527344 C 154.011719 184.285156 149.488281 189.800781 145.886719 196.074219 C 144.992188 197.679688 144.183594 199.328125 143.460938 201.019531 L 142.238281 198.699219 C 142.097656 198.433594 141.910156 198.203125 141.679688 198.011719 C 141.445312 197.820312 141.1875 197.679688 140.898438 197.589844 C 140.609375 197.503906 140.316406 197.472656 140.015625 197.5 C 139.714844 197.527344 139.433594 197.613281 139.164062 197.753906 C 138.898438 197.894531 138.667969 198.082031 138.476562 198.316406 C 138.285156 198.546875 138.144531 198.808594 138.058594 199.09375 C 137.96875 199.382812 137.9375 199.675781 137.96875 199.976562 C 137.996094 200.277344 138.082031 200.5625 138.222656 200.828125 L 141.414062 206.878906 C 140.71875 209.402344 140.265625 211.964844 140.046875 214.570312 L 131.820312 206.988281 C 131.597656 206.78125 131.347656 206.625 131.0625 206.519531 C 130.78125 206.417969 130.488281 206.371094 130.1875 206.382812 C 129.886719 206.390625 129.597656 206.460938 129.324219 206.585938 C 129.050781 206.714844 128.8125 206.886719 128.605469 207.109375 C 128.402344 207.328125 128.246094 207.582031 128.144531 207.863281 C 128.039062 208.148438 127.992188 208.4375 128.003906 208.738281 C 128.015625 209.042969 128.085938 209.328125 128.210938 209.601562 C 128.339844 209.875 128.511719 210.113281 128.734375 210.320312 L 140.015625 220.746094 C 140.09375 221.890625 140.222656 223.050781 140.402344 224.226562 L 106.289062 213.523438 C 106.003906 213.433594 105.710938 213.402344 105.410156 213.425781 C 105.109375 213.453125 104.824219 213.535156 104.558594 213.675781 C 104.289062 213.8125 104.058594 214 103.867188 214.230469 C 103.671875 214.460938 103.53125 214.71875 103.441406 215.007812 C 103.347656 215.296875 103.316406 215.589844 103.34375 215.890625 C 103.371094 216.1875 103.453125 216.472656 103.59375 216.738281 C 103.734375 217.007812 103.917969 217.238281 104.152344 217.429688 C 104.382812 217.625 104.640625 217.765625 104.929688 217.855469 L 141.5 229.328125 C 142.335938 232.265625 143.4375 235.101562 144.800781 237.832031 C 144.9375 239.15625 145.3125 240.410156 145.929688 241.589844 C 146.722656 243.148438 147.847656 244.414062 149.300781 245.386719 C 152.433594 249.925781 156.273438 253.757812 160.828125 256.875 L 161.09375 259.941406 C 117.460938 264.058594 85.375 241.0625 81.824219 238.40625 C 80.027344 235.515625 78.4375 232.703125 77.039062 230.007812 C 68.289062 213.128906 65.414062 198.167969 64.480469 189.539062 Z M 88.457031 248.046875 C 100.5 254.957031 122.820312 264.984375 150.714844 264.984375 C 154.222656 264.984375 157.816406 264.808594 161.492188 264.453125 L 162.136719 271.601562 C 162.160156 271.886719 162.234375 272.152344 162.359375 272.410156 C 162.484375 272.664062 162.652344 272.886719 162.859375 273.078125 C 163.070312 273.269531 163.308594 273.417969 163.570312 273.519531 C 163.835938 273.625 164.113281 273.675781 164.394531 273.675781 L 164.59375 273.675781 C 164.890625 273.648438 165.175781 273.566406 165.441406 273.425781 C 165.710938 273.285156 165.941406 273.101562 166.132812 272.871094 C 166.328125 272.640625 166.472656 272.382812 166.5625 272.09375 C 166.652344 271.808594 166.6875 271.515625 166.660156 271.214844 L 166.035156 263.964844 C 168.09375 263.695312 170.175781 263.359375 172.277344 262.957031 L 175.429688 269.902344 C 175.617188 270.304688 175.894531 270.628906 176.269531 270.871094 C 176.644531 271.113281 177.054688 271.234375 177.5 271.234375 C 177.6875 271.234375 177.875 271.207031 178.054688 271.160156 C 178.238281 271.113281 178.410156 271.042969 178.578125 270.953125 C 178.742188 270.863281 178.894531 270.753906 179.03125 270.625 C 179.167969 270.496094 179.289062 270.355469 179.390625 270.195312 C 179.492188 270.039062 179.574219 269.871094 179.636719 269.691406 C 179.695312 269.515625 179.734375 269.332031 179.75 269.144531 C 179.765625 268.957031 179.757812 268.769531 179.726562 268.582031 C 179.699219 268.398438 179.644531 268.21875 179.570312 268.046875 L 177.628906 263.769531 C 181.179688 264.441406 184.765625 264.773438 188.382812 264.761719 C 189.96875 264.761719 191.582031 264.703125 193.226562 264.585938 C 196.183594 264.355469 199.113281 263.953125 202.023438 263.386719 C 193.359375 270.535156 180.96875 281.890625 176.65625 291.554688 C 173.464844 298.652344 173.378906 303.777344 174.339844 307.28125 C 129.996094 291.21875 103.84375 268.488281 88.457031 248.046875 Z M 301.316406 218.242188 C 286.28125 247.648438 259.050781 272.203125 238.847656 287.625 C 209.210938 310.261719 201.933594 313.398438 190.636719 313.109375 L 190.488281 313.109375 L 202.253906 302.261719 C 202.472656 302.058594 202.648438 301.820312 202.773438 301.546875 C 202.898438 301.273438 202.96875 300.988281 202.980469 300.6875 C 202.992188 300.386719 202.945312 300.09375 202.84375 299.8125 C 202.738281 299.53125 202.585938 299.277344 202.378906 299.058594 C 202.175781 298.835938 201.9375 298.664062 201.664062 298.535156 C 201.390625 298.410156 201.105469 298.339844 200.804688 298.328125 C 200.503906 298.316406 200.210938 298.359375 199.929688 298.464844 C 199.648438 298.566406 199.394531 298.722656 199.171875 298.925781 L 185.277344 311.75 C 185.140625 311.878906 185.019531 312.023438 184.917969 312.183594 C 182.5625 311.382812 180.761719 310.058594 179.671875 308.359375 C 179.464844 308.015625 179.289062 307.664062 179.136719 307.296875 L 193.035156 292.5625 C 193.25 292.34375 193.414062 292.09375 193.523438 291.8125 C 193.636719 291.527344 193.691406 291.234375 193.6875 290.929688 C 193.679688 290.625 193.613281 290.332031 193.492188 290.054688 C 193.367188 289.777344 193.195312 289.53125 192.972656 289.324219 C 192.75 289.113281 192.5 288.957031 192.210938 288.847656 C 191.925781 288.742188 191.632812 288.695312 191.328125 288.707031 C 191.023438 288.71875 190.730469 288.789062 190.457031 288.917969 C 190.179688 289.046875 189.9375 289.222656 189.734375 289.449219 L 178.4375 301.417969 C 178.8125 298.640625 179.601562 295.980469 180.796875 293.445312 C 186.492188 280.691406 208.875 263.683594 213.011719 260.585938 C 215.378906 259.804688 217.160156 259.097656 218.191406 258.671875 C 222.085938 260.910156 227.6875 263.296875 234.222656 263.59375 L 234.328125 263.59375 C 234.597656 263.59375 234.859375 263.546875 235.109375 263.453125 C 235.363281 263.359375 235.589844 263.226562 235.796875 263.054688 C 236 262.878906 236.167969 262.675781 236.300781 262.441406 C 236.433594 262.210938 236.523438 261.960938 236.566406 261.695312 C 236.648438 261.210938 237.796875 253.78125 233.910156 244.0625 L 234.019531 243.964844 C 244.089844 232.640625 239.636719 217.742188 239.445312 217.117188 C 239.355469 216.828125 239.214844 216.566406 239.023438 216.335938 C 238.832031 216.105469 238.601562 215.917969 238.335938 215.777344 C 238.070312 215.636719 237.789062 215.550781 237.488281 215.523438 C 237.1875 215.492188 236.894531 215.523438 236.605469 215.613281 C 236.316406 215.699219 236.058594 215.839844 235.824219 216.03125 C 235.59375 216.222656 235.40625 216.453125 235.265625 216.71875 C 235.125 216.984375 235.039062 217.269531 235.011719 217.570312 C 234.980469 217.867188 235.011719 218.164062 235.101562 218.449219 C 235.140625 218.574219 238.582031 230.296875 231.78125 239.511719 C 228.824219 234.128906 225.039062 229.40625 220.429688 225.34375 C 220.207031 225.136719 219.953125 224.980469 219.667969 224.875 C 219.382812 224.769531 219.089844 224.722656 218.785156 224.738281 C 218.480469 224.75 218.191406 224.820312 217.917969 224.953125 C 217.640625 225.082031 217.402344 225.257812 217.199219 225.484375 C 216.996094 225.710938 216.84375 225.964844 216.742188 226.253906 C 216.640625 226.539062 216.597656 226.835938 216.617188 227.136719 C 216.636719 227.441406 216.710938 227.730469 216.84375 228.003906 C 216.980469 228.277344 217.160156 228.511719 217.390625 228.710938 C 231.136719 241.0625 232.339844 253.902344 232.226562 258.835938 C 222.617188 257.578125 215.53125 251.316406 215.421875 251.210938 C 215.199219 251.007812 214.945312 250.859375 214.660156 250.757812 C 214.378906 250.65625 214.085938 250.613281 213.785156 250.628906 C 213.484375 250.644531 213.199219 250.714844 212.925781 250.84375 C 212.65625 250.972656 212.417969 251.148438 212.214844 251.371094 C 212.015625 251.59375 211.863281 251.847656 211.761719 252.128906 C 211.660156 252.410156 211.617188 252.703125 211.628906 253.003906 C 211.644531 253.304688 211.714844 253.589844 211.84375 253.863281 C 211.972656 254.132812 212.144531 254.371094 212.367188 254.574219 C 212.441406 254.644531 212.851562 255.007812 213.550781 255.550781 L 212.351562 255.972656 C 211.851562 255.957031 211.398438 256.097656 210.992188 256.390625 L 210.921875 256.4375 C 205.003906 258.359375 198.945312 259.558594 192.742188 260.042969 C 186.835938 260.542969 181.007812 260.0625 175.261719 258.601562 L 170.398438 247.886719 C 170.277344 247.613281 170.101562 247.375 169.882812 247.167969 C 169.664062 246.960938 169.414062 246.808594 169.128906 246.699219 C 168.847656 246.59375 168.558594 246.546875 168.253906 246.558594 C 167.953125 246.566406 167.667969 246.632812 167.394531 246.757812 C 167.117188 246.882812 166.878906 247.054688 166.671875 247.273438 C 166.464844 247.496094 166.3125 247.746094 166.203125 248.027344 C 166.097656 248.308594 166.050781 248.601562 166.0625 248.902344 C 166.070312 249.203125 166.136719 249.488281 166.261719 249.765625 L 169.320312 256.476562 C 167.894531 255.839844 166.511719 255.121094 165.171875 254.3125 L 164.675781 248.601562 C 164.652344 248.300781 164.570312 248.015625 164.429688 247.75 C 164.292969 247.484375 164.105469 247.253906 163.875 247.058594 C 163.644531 246.867188 163.386719 246.722656 163.101562 246.632812 C 162.8125 246.542969 162.519531 246.511719 162.21875 246.535156 C 161.921875 246.5625 161.636719 246.644531 161.371094 246.78125 C 161.101562 246.921875 160.871094 247.105469 160.679688 247.335938 C 160.484375 247.5625 160.339844 247.824219 160.25 248.109375 C 160.160156 248.394531 160.125 248.6875 160.152344 248.988281 L 160.3125 250.835938 C 158.480469 249.28125 156.800781 247.582031 155.269531 245.730469 C 157.769531 244.035156 158.28125 239.910156 156.332031 236.195312 C 154.296875 232.273438 150.316406 230.296875 147.441406 231.789062 C 147.332031 231.84375 147.234375 231.914062 147.132812 231.96875 C 146.304688 229.882812 145.660156 227.742188 145.191406 225.546875 L 145.359375 225.703125 C 145.582031 225.910156 145.832031 226.0625 146.117188 226.167969 C 146.398438 226.273438 146.691406 226.320312 146.992188 226.308594 C 147.292969 226.296875 147.582031 226.226562 147.855469 226.101562 C 148.128906 225.976562 148.367188 225.804688 148.574219 225.582031 C 148.777344 225.363281 148.933594 225.109375 149.039062 224.828125 C 149.140625 224.542969 149.1875 224.253906 149.175781 223.953125 C 149.164062 223.652344 149.097656 223.363281 148.972656 223.089844 C 148.84375 222.816406 148.671875 222.578125 148.449219 222.371094 L 144.386719 218.613281 C 144.355469 216.792969 144.457031 214.980469 144.703125 213.171875 L 148.523438 220.425781 C 148.722656 220.800781 149 221.097656 149.359375 221.316406 C 149.722656 221.535156 150.113281 221.644531 150.535156 221.644531 C 150.914062 221.644531 151.265625 221.558594 151.597656 221.378906 C 151.867188 221.238281 152.09375 221.050781 152.289062 220.820312 C 152.480469 220.589844 152.621094 220.328125 152.710938 220.042969 C 152.800781 219.753906 152.832031 219.460938 152.804688 219.160156 C 152.777344 218.863281 152.691406 218.578125 152.550781 218.3125 L 146.277344 206.398438 C 147.1875 203.636719 148.351562 200.992188 149.773438 198.457031 C 153.242188 192.421875 157.613281 187.136719 162.894531 182.601562 C 163.316406 183.824219 163.640625 184.558594 163.695312 184.675781 C 163.816406 184.949219 163.988281 185.191406 164.210938 185.394531 C 164.429688 185.601562 164.679688 185.757812 164.960938 185.867188 C 165.246094 185.972656 165.535156 186.019531 165.835938 186.011719 C 166.136719 186 166.425781 185.933594 166.703125 185.808594 C 166.976562 185.6875 167.214844 185.515625 167.421875 185.292969 C 167.628906 185.074219 167.785156 184.824219 167.890625 184.542969 C 168 184.261719 168.046875 183.96875 168.039062 183.667969 C 168.027344 183.367188 167.960938 183.078125 167.835938 182.804688 C 166.480469 179.339844 165.652344 175.75 165.34375 172.042969 C 165.035156 168.332031 165.261719 164.65625 166.023438 161.015625 C 170.898438 162.386719 183.519531 167.921875 188.359375 188.730469 C 188.417969 188.980469 188.515625 189.210938 188.65625 189.429688 C 188.792969 189.644531 188.960938 189.832031 189.160156 189.992188 C 189.363281 190.152344 189.585938 190.273438 189.824219 190.355469 C 190.066406 190.441406 190.316406 190.484375 190.574219 190.484375 C 190.753906 190.488281 190.929688 190.46875 191.105469 190.425781 C 191.398438 190.359375 191.667969 190.238281 191.914062 190.0625 C 192.160156 189.886719 192.363281 189.671875 192.519531 189.414062 C 192.679688 189.160156 192.785156 188.882812 192.832031 188.585938 C 192.882812 188.289062 192.871094 187.992188 192.800781 187.699219 C 191.566406 182.0625 189.457031 176.777344 186.472656 171.839844 C 186.527344 171.730469 186.59375 171.585938 186.675781 171.410156 C 196.613281 171.261719 202.097656 174.066406 202.195312 174.105469 C 202.457031 174.226562 202.734375 174.292969 203.023438 174.308594 C 203.3125 174.324219 203.597656 174.285156 203.871094 174.195312 C 204.144531 174.101562 204.394531 173.960938 204.613281 173.773438 C 204.835938 173.585938 205.015625 173.363281 205.152344 173.109375 C 205.285156 172.851562 205.371094 172.582031 205.402344 172.292969 C 205.433594 172.003906 205.410156 171.71875 205.335938 171.441406 C 205.257812 171.160156 205.132812 170.90625 204.957031 170.675781 C 204.78125 170.445312 204.570312 170.253906 204.320312 170.101562 C 204.0625 169.964844 198.53125 167.050781 188.429688 166.871094 C 190.121094 161.835938 191.0625 156.664062 191.253906 151.359375 C 194.695312 150.464844 207.210938 148.027344 219.304688 155.816406 C 219.675781 156.0625 220.085938 156.183594 220.53125 156.183594 C 221.035156 156.183594 221.488281 156.03125 221.890625 155.730469 C 222.296875 155.425781 222.566406 155.035156 222.710938 154.550781 C 222.851562 154.070312 222.835938 153.59375 222.660156 153.121094 C 222.488281 152.648438 222.1875 152.273438 221.765625 152 C 209.085938 143.835938 196.324219 145.511719 191.183594 146.6875 C 190.976562 143.335938 190.398438 140.050781 189.449219 136.832031 C 191.742188 125.21875 209.59375 109.425781 232.976562 104.105469 C 247.761719 100.757812 275.574219 99.480469 296.160156 128.574219 C 315.808594 156.332031 317.542969 186.503906 301.316406 218.242188 Z M 301.316406 218.242188 " fill-opacity="1" fill-rule="nonzero"/></g><path fill="#231f20" d="M 179.761719 232.699219 C 179.464844 232.652344 179.167969 232.664062 178.875 232.734375 C 178.582031 232.804688 178.3125 232.929688 178.070312 233.109375 C 177.828125 233.285156 177.628906 233.503906 177.46875 233.757812 C 177.3125 234.015625 177.210938 234.292969 177.164062 234.589844 C 177.117188 234.886719 177.132812 235.183594 177.203125 235.476562 C 177.273438 235.769531 177.398438 236.035156 177.574219 236.28125 C 177.753906 236.523438 177.96875 236.722656 178.226562 236.878906 C 178.484375 237.035156 178.761719 237.136719 179.058594 237.183594 C 179.589844 237.265625 184.070312 238.15625 183.21875 244.597656 C 183.179688 244.894531 183.195312 245.191406 183.273438 245.480469 C 183.351562 245.773438 183.480469 246.039062 183.664062 246.277344 C 183.847656 246.515625 184.070312 246.710938 184.332031 246.859375 C 184.589844 247.011719 184.871094 247.105469 185.167969 247.144531 C 185.269531 247.152344 185.371094 247.152344 185.472656 247.144531 C 185.75 247.144531 186.015625 247.09375 186.273438 247 C 186.53125 246.902344 186.761719 246.761719 186.96875 246.582031 C 187.175781 246.398438 187.34375 246.1875 187.472656 245.945312 C 187.605469 245.703125 187.6875 245.445312 187.722656 245.171875 C 188.871094 236.472656 183.015625 233.207031 179.761719 232.699219 Z M 179.761719 232.699219 " fill-opacity="1" fill-rule="nonzero"/><path fill="#231f20" d="M 160.277344 207.902344 C 159.984375 207.917969 159.699219 207.988281 159.433594 208.117188 C 159.164062 208.246094 158.933594 208.417969 158.734375 208.636719 C 158.535156 208.859375 158.382812 209.109375 158.28125 209.386719 C 158.183594 209.664062 158.136719 209.953125 158.152344 210.25 C 158.164062 210.542969 158.230469 210.824219 158.351562 211.09375 C 158.472656 211.359375 158.640625 211.597656 158.851562 211.800781 C 159.066406 212.003906 159.308594 212.160156 159.582031 212.269531 C 159.855469 212.378906 160.140625 212.433594 160.433594 212.433594 L 160.492188 212.433594 C 161.347656 212.402344 165.640625 212.621094 166.085938 218.855469 C 166.105469 219.140625 166.175781 219.414062 166.296875 219.675781 C 166.421875 219.9375 166.585938 220.164062 166.796875 220.363281 C 167.007812 220.558594 167.246094 220.710938 167.511719 220.820312 C 167.78125 220.925781 168.058594 220.980469 168.347656 220.980469 L 168.515625 220.980469 C 168.820312 220.960938 169.105469 220.882812 169.378906 220.75 C 169.652344 220.617188 169.886719 220.4375 170.085938 220.207031 C 170.285156 219.980469 170.433594 219.722656 170.53125 219.433594 C 170.628906 219.148438 170.667969 218.851562 170.644531 218.550781 C 169.964844 209.761719 163.578125 207.75 160.277344 207.902344 Z M 160.277344 207.902344 " fill-opacity="1" fill-rule="nonzero"/><path fill="#231f20" d="M 107.136719 161.390625 L 123.347656 167.238281 C 123.597656 167.328125 123.855469 167.375 124.117188 167.375 C 124.382812 167.371094 124.636719 167.324219 124.882812 167.230469 C 125.128906 167.136719 125.355469 167.007812 125.554688 166.835938 C 125.753906 166.667969 125.921875 166.46875 126.050781 166.238281 C 126.183594 166.011719 126.273438 165.765625 126.320312 165.507812 C 126.367188 165.25 126.367188 164.988281 126.324219 164.730469 C 126.28125 164.46875 126.191406 164.226562 126.0625 163.996094 C 125.933594 163.765625 125.769531 163.566406 125.574219 163.394531 C 125.375 163.222656 125.152344 163.085938 124.90625 162.992188 L 108.695312 157.144531 C 108.417969 157.070312 108.140625 157.046875 107.855469 157.074219 C 107.570312 157.105469 107.304688 157.1875 107.050781 157.316406 C 106.796875 157.449219 106.574219 157.621094 106.386719 157.835938 C 106.199219 158.046875 106.054688 158.289062 105.957031 158.558594 C 105.859375 158.824219 105.8125 159.101562 105.820312 159.386719 C 105.828125 159.671875 105.886719 159.945312 105.996094 160.210938 C 106.105469 160.472656 106.261719 160.707031 106.460938 160.910156 C 106.660156 161.117188 106.886719 161.277344 107.148438 161.398438 Z M 107.136719 161.390625 " fill-opacity="1" fill-rule="nonzero"/><path fill="#231f20" d="M 107.566406 173.332031 L 124.765625 172.160156 C 125.070312 172.140625 125.355469 172.066406 125.628906 171.933594 C 125.902344 171.800781 126.136719 171.621094 126.335938 171.394531 C 126.535156 171.164062 126.683594 170.910156 126.78125 170.621094 C 126.878906 170.335938 126.917969 170.042969 126.898438 169.738281 C 126.875 169.4375 126.800781 169.152344 126.664062 168.882812 C 126.527344 168.609375 126.347656 168.375 126.117188 168.179688 C 125.890625 167.980469 125.628906 167.832031 125.34375 167.738281 C 125.054688 167.644531 124.761719 167.609375 124.457031 167.632812 L 107.257812 168.785156 C 106.964844 168.804688 106.6875 168.878906 106.421875 169.007812 C 106.15625 169.136719 105.925781 169.308594 105.726562 169.527344 C 105.53125 169.746094 105.382812 169.992188 105.28125 170.269531 C 105.179688 170.546875 105.132812 170.832031 105.144531 171.125 C 105.15625 171.417969 105.21875 171.703125 105.339844 171.96875 C 105.457031 172.238281 105.625 172.476562 105.835938 172.679688 C 106.046875 172.882812 106.289062 173.042969 106.5625 173.152344 C 106.835938 173.261719 107.117188 173.316406 107.414062 173.316406 Z M 107.566406 173.332031 " fill-opacity="1" fill-rule="nonzero"/><path fill="#231f20" d="M 123.628906 173.433594 L 108.09375 180.90625 C 107.824219 181.039062 107.585938 181.214844 107.386719 181.441406 C 107.183594 181.664062 107.035156 181.917969 106.933594 182.203125 C 106.835938 182.488281 106.792969 182.78125 106.8125 183.082031 C 106.828125 183.382812 106.902344 183.667969 107.03125 183.9375 C 107.164062 184.210938 107.339844 184.445312 107.566406 184.648438 C 107.792969 184.847656 108.046875 184.996094 108.332031 185.097656 C 108.613281 185.195312 108.90625 185.238281 109.207031 185.222656 C 109.507812 185.203125 109.796875 185.128906 110.066406 185 L 125.597656 177.527344 C 125.867188 177.398438 126.105469 177.21875 126.304688 176.996094 C 126.507812 176.769531 126.65625 176.515625 126.757812 176.234375 C 126.855469 175.949219 126.898438 175.65625 126.878906 175.355469 C 126.863281 175.054688 126.789062 174.769531 126.660156 174.5 C 126.53125 174.226562 126.351562 173.992188 126.128906 173.789062 C 125.902344 173.589844 125.648438 173.4375 125.363281 173.339844 C 125.082031 173.238281 124.789062 173.199219 124.488281 173.214844 C 124.1875 173.230469 123.902344 173.304688 123.628906 173.433594 Z M 123.628906 173.433594 " fill-opacity="1" fill-rule="nonzero"/><path fill="#231f20" d="M 159.078125 152.734375 C 159.378906 152.734375 159.667969 152.675781 159.945312 152.5625 C 160.222656 152.445312 160.46875 152.28125 160.683594 152.070312 C 160.894531 151.855469 161.058594 151.613281 161.175781 151.332031 C 161.289062 151.054688 161.347656 150.765625 161.347656 150.464844 C 161.347656 150.121094 161.414062 149.789062 161.546875 149.46875 C 161.679688 149.148438 161.867188 148.867188 162.113281 148.625 C 162.355469 148.378906 162.636719 148.191406 162.957031 148.058594 C 163.277344 147.925781 163.609375 147.859375 163.953125 147.859375 C 164.300781 147.859375 164.632812 147.925781 164.953125 148.058594 C 165.269531 148.191406 165.550781 148.378906 165.796875 148.625 C 166.042969 148.867188 166.230469 149.148438 166.363281 149.46875 C 166.496094 149.789062 166.558594 150.121094 166.558594 150.464844 C 166.574219 150.757812 166.640625 151.035156 166.765625 151.300781 C 166.886719 151.566406 167.050781 151.800781 167.265625 152.003906 C 167.476562 152.203125 167.71875 152.359375 167.988281 152.46875 C 168.257812 152.574219 168.542969 152.628906 168.832031 152.628906 C 169.125 152.628906 169.40625 152.574219 169.679688 152.46875 C 169.949219 152.359375 170.191406 152.203125 170.402344 152 C 170.617188 151.800781 170.78125 151.566406 170.902344 151.300781 C 171.027344 151.035156 171.09375 150.757812 171.109375 150.464844 C 171.121094 149.988281 171.085938 149.515625 171.003906 149.042969 C 170.921875 148.574219 170.792969 148.113281 170.621094 147.671875 C 170.445312 147.226562 170.230469 146.800781 169.972656 146.402344 C 169.710938 146 169.417969 145.628906 169.082031 145.285156 C 168.75 144.941406 168.386719 144.636719 167.992188 144.367188 C 167.597656 144.097656 167.179688 143.871094 166.738281 143.683594 C 166.300781 143.5 165.84375 143.359375 165.375 143.265625 C 164.90625 143.167969 164.433594 143.121094 163.957031 143.121094 C 163.480469 143.121094 163.003906 143.167969 162.539062 143.265625 C 162.070312 143.359375 161.613281 143.5 161.175781 143.683594 C 160.734375 143.871094 160.316406 144.097656 159.921875 144.367188 C 159.527344 144.636719 159.164062 144.941406 158.832031 145.285156 C 158.496094 145.628906 158.199219 146 157.941406 146.402344 C 157.683594 146.800781 157.46875 147.226562 157.292969 147.671875 C 157.121094 148.113281 156.992188 148.574219 156.910156 149.042969 C 156.828125 149.515625 156.792969 149.988281 156.804688 150.464844 C 156.804688 150.765625 156.863281 151.054688 156.980469 151.332031 C 157.09375 151.613281 157.257812 151.855469 157.472656 152.070312 C 157.683594 152.28125 157.929688 152.445312 158.207031 152.5625 C 158.484375 152.675781 158.777344 152.734375 159.078125 152.734375 Z M 159.078125 152.734375 " fill-opacity="1" fill-rule="nonzero"/><path fill="#231f20" d="M 134.589844 150.4375 C 134.589844 150.738281 134.648438 151.027344 134.761719 151.308594 C 134.878906 151.585938 135.042969 151.832031 135.257812 152.042969 C 135.46875 152.257812 135.714844 152.417969 135.992188 152.535156 C 136.269531 152.648438 136.5625 152.707031 136.863281 152.707031 C 137.164062 152.707031 137.453125 152.648438 137.730469 152.535156 C 138.007812 152.417969 138.253906 152.257812 138.46875 152.042969 C 138.679688 151.832031 138.84375 151.585938 138.960938 151.308594 C 139.074219 151.027344 139.132812 150.738281 139.132812 150.4375 C 139.121094 149.976562 139.0625 149.523438 138.960938 149.070312 C 138.863281 148.621094 138.71875 148.1875 138.535156 147.761719 C 138.347656 147.339844 138.125 146.941406 137.859375 146.5625 C 137.597656 146.183594 137.300781 145.832031 136.972656 145.511719 C 136.640625 145.1875 136.28125 144.902344 135.894531 144.648438 C 135.507812 144.398438 135.101562 144.183594 134.675781 144.011719 C 134.246094 143.835938 133.804688 143.707031 133.355469 143.617188 C 132.902344 143.53125 132.445312 143.484375 131.980469 143.484375 C 131.519531 143.484375 131.0625 143.53125 130.609375 143.617188 C 130.15625 143.707031 129.71875 143.835938 129.289062 144.011719 C 128.863281 144.183594 128.457031 144.398438 128.070312 144.648438 C 127.683594 144.902344 127.324219 145.1875 126.992188 145.511719 C 126.664062 145.832031 126.367188 146.183594 126.101562 146.5625 C 125.839844 146.941406 125.617188 147.339844 125.429688 147.761719 C 125.246094 148.1875 125.101562 148.621094 125 149.070312 C 124.902344 149.523438 124.84375 149.976562 124.832031 150.4375 C 124.84375 150.730469 124.914062 151.007812 125.035156 151.273438 C 125.15625 151.539062 125.324219 151.773438 125.535156 151.976562 C 125.746094 152.175781 125.988281 152.332031 126.257812 152.441406 C 126.53125 152.550781 126.8125 152.601562 127.105469 152.601562 C 127.398438 152.601562 127.679688 152.550781 127.949219 152.441406 C 128.222656 152.332031 128.464844 152.175781 128.675781 151.976562 C 128.886719 151.773438 129.054688 151.539062 129.175781 151.273438 C 129.296875 151.007812 129.363281 150.730469 129.378906 150.4375 C 129.378906 150.09375 129.445312 149.761719 129.578125 149.441406 C 129.710938 149.121094 129.898438 148.839844 130.140625 148.597656 C 130.386719 148.351562 130.667969 148.164062 130.988281 148.03125 C 131.304688 147.898438 131.640625 147.835938 131.984375 147.835938 C 132.332031 147.835938 132.664062 147.898438 132.980469 148.03125 C 133.300781 148.164062 133.582031 148.351562 133.828125 148.597656 C 134.070312 148.839844 134.261719 149.121094 134.390625 149.441406 C 134.523438 149.761719 134.589844 150.09375 134.589844 150.4375 Z M 134.589844 150.4375 " fill-opacity="1" fill-rule="nonzero"/></svg>