<svg class="svg-icon" style="width: 1em; height: 1em;vertical-align: middle;fill: currentColor;overflow: hidden;" viewBox="0 0 1024 1024" version="1.1" xmlns="http://www.w3.org/2000/svg"><path d="M48.872727 446.836364C23.272727 446.836364 0 425.890909 0 397.963636v-349.090909C0 20.945455 20.945455 0 48.872727 0h351.418182c25.6 0 48.872727 20.945455 48.872727 48.872727v351.418182c0 25.6-20.945455 48.872727-48.872727 48.872727H48.872727zM623.709091 446.836364c-25.6 0-48.872727-20.945455-48.872727-48.872728v-349.090909c0-25.6 20.945455-48.872727 48.872727-48.872727h351.418182c27.927273 0 48.872727 20.945455 48.872727 48.872727v351.418182c0 25.6-20.945455 48.872727-48.872727 48.872727H623.709091zM48.872727 1024C20.945455 1024 0 1003.054545 0 975.127273V623.709091c0-25.6 20.945455-48.872727 48.872727-48.872727h351.418182c25.6 0 48.872727 20.945455 48.872727 48.872727v351.418182c0 25.6-20.945455 48.872727-48.872727 48.872727H48.872727zM623.709091 1024c-25.6 0-48.872727-20.945455-48.872727-48.872727V623.709091c0-25.6 20.945455-48.872727 48.872727-48.872727h351.418182c25.6 0 48.872727 20.945455 48.872727 48.872727v351.418182c0 25.6-20.945455 48.872727-48.872727 48.872727H623.709091z"  /></svg>